<?xml version="1.0" encoding="UTF-8"?>
<!DOCTYPE svg PUBLIC "-//W3C//DTD SVG 1.1//EN" "http://www.w3.org/Graphics/SVG/1.1/DTD/svg11.dtd">
<svg xmlns="http://www.w3.org/2000/svg" version="1.1" width="128px" height="128px" style="shape-rendering:geometricPrecision; text-rendering:geometricPrecision; image-rendering:optimizeQuality; fill-rule:evenodd; clip-rule:evenodd" xmlns:xlink="http://www.w3.org/1999/xlink">
<g><path style="opacity:0.989" fill="#172c72" d="M 127.5,34.5 C 127.5,53.8333 127.5,73.1667 127.5,92.5C 125.149,97.6782 121.149,100.845 115.5,102C 80.8333,102.667 46.1667,102.667 11.5,102C 5.85117,100.845 1.85117,97.6782 -0.5,92.5C -0.5,73.1667 -0.5,53.8333 -0.5,34.5C 1.97664,28.8646 6.30997,25.6979 12.5,25C 46.5,24.3333 80.5,24.3333 114.5,25C 120.69,25.6979 125.023,28.8646 127.5,34.5 Z"/></g>
<g><path style="opacity:1" fill="#fc9007" d="M 23.5,30.5 C 23.5701,37.4428 24.9035,44.1095 27.5,50.5C 22.1934,55.547 22.1934,60.7137 27.5,66C 30.2065,67.9076 33.2065,68.741 36.5,68.5C 41.3033,74.1354 46.6366,79.3021 52.5,84C 38.8374,84.4999 25.1707,84.6666 11.5,84.5C 7.92087,84.0894 5.75421,82.0894 5,78.5C 4.33333,64.5 4.33333,50.5 5,36.5C 6.16667,34 8,32.1667 10.5,31C 14.8206,30.501 19.1539,30.3343 23.5,30.5 Z"/></g>
<g><path style="opacity:1" fill="#fac952" d="M 23.5,30.5 C 54.5018,30.3334 85.5018,30.5 116.5,31C 119,32.1667 120.833,34 122,36.5C 122.667,50.5 122.667,64.5 122,78.5C 121.167,82 119,84.1667 115.5,85C 80.6642,85.8309 45.9976,85.6643 11.5,84.5C 25.1707,84.6666 38.8374,84.4999 52.5,84C 46.6366,79.3021 41.3033,74.1354 36.5,68.5C 42.968,65.5502 45.1347,60.5502 43,53.5C 38.7058,48.1141 33.5392,47.1141 27.5,50.5C 24.9035,44.1095 23.5701,37.4428 23.5,30.5 Z"/></g>
<g><path style="opacity:1" fill="#fff6ec" d="M 13.5,48.5 C 15.1439,48.2865 16.6439,48.6198 18,49.5C 18.4992,54.1548 18.6658,58.8215 18.5,63.5C 22.6759,62.8307 24.0093,64.3307 22.5,68C 19.5706,68.7772 16.7372,68.6105 14,67.5C 13.5005,61.1754 13.3338,54.8421 13.5,48.5 Z"/></g>
<g><path style="opacity:1" fill="#fffbf4" d="M 36.5,68.5 C 33.2065,68.741 30.2065,67.9076 27.5,66C 22.1934,60.7137 22.1934,55.547 27.5,50.5C 33.5392,47.1141 38.7058,48.1141 43,53.5C 45.1347,60.5502 42.968,65.5502 36.5,68.5 Z"/></g>
<g><path style="opacity:1" fill="#fffcf5" d="M 52.5,48.5 C 55.5184,48.3354 58.5184,48.502 61.5,49C 64.0806,50.8407 64.0806,52.6741 61.5,54.5C 53.3358,52.3245 51.0025,54.9912 54.5,62.5C 56.9007,64.0622 58.9007,63.7288 60.5,61.5C 56.4537,60.6063 55.7871,58.773 58.5,56C 66.9723,54.7895 68.8056,57.9562 64,65.5C 57.6204,70.024 52.287,69.024 48,62.5C 46.4543,56.794 47.9543,52.1273 52.5,48.5 Z"/></g>
<g><path style="opacity:1" fill="#fffcf8" d="M 70.5,48.5 C 71.8221,48.33 72.9887,48.6634 74,49.5C 74.6667,55.5 74.6667,61.5 74,67.5C 72.6667,68.8333 71.3333,68.8333 70,67.5C 69.2098,61.0853 69.3765,54.752 70.5,48.5 Z"/></g>
<g><path style="opacity:1" fill="#fffcf7" d="M 79.5,48.5 C 80.552,48.3505 81.552,48.5172 82.5,49C 84.3333,51.5 86.1667,54 88,56.5C 88.3333,54.1667 88.6667,51.8333 89,49.5C 90.3561,48.6198 91.8561,48.2865 93.5,48.5C 93.6662,54.8421 93.4995,61.1754 93,67.5C 92.586,67.9574 92.086,68.2907 91.5,68.5C 88.5339,65.9094 86.0339,62.9094 84,59.5C 83.6667,62.1667 83.3333,64.8333 83,67.5C 81.6667,68.8333 80.3333,68.8333 79,67.5C 78.2098,61.0853 78.3765,54.752 79.5,48.5 Z"/></g>
<g><path style="opacity:1" fill="#fffcf5" d="M 103.5,49.5 C 116.09,54.5206 116.59,60.5206 105,67.5C 103.5,67.3333 102.667,66.5 102.5,65C 103.961,62.7017 105.628,60.5351 107.5,58.5C 106.185,56.6841 104.685,55.0175 103,53.5C 102.421,52.0715 102.588,50.7382 103.5,49.5 Z"/></g>
<g><path style="opacity:1" fill="#fdc653" d="M 31.5,53.5 C 39.2878,53.7462 40.9544,56.9129 36.5,63C 28.4079,63.0901 26.7412,59.9235 31.5,53.5 Z"/></g>
<g><path style="opacity:1" fill="#fb8e02" d="M 4.5,86.5 C 6.30826,87.9073 8.30826,89.074 10.5,90C 45.8333,90.6667 81.1667,90.6667 116.5,90C 118.587,89.2078 120.421,88.0412 122,86.5C 122.65,91.0273 120.816,94.194 116.5,96C 81.1667,96.6667 45.8333,96.6667 10.5,96C 6.34503,94.1893 4.34503,91.0226 4.5,86.5 Z"/></g>
</svg>
